<svg xmlns="http://www.w3.org/2000/svg" xmlns:xlink="http://www.w3.org/1999/xlink" width="500" zoomAndPan="magnify" viewBox="0 0 375 374.999991" height="500" preserveAspectRatio="xMidYMid meet" version="1.0"><path fill="#5767c9" d="M 105.785156 84.40625 L 269.636719 84.40625 C 326.691406 84.40625 372.941406 130.65625 372.941406 187.710938 C 372.941406 244.765625 326.691406 291.015625 269.636719 291.015625 L 105.785156 291.015625 C 48.730469 291.015625 2.480469 244.765625 2.480469 187.710938 C 2.480469 130.65625 48.730469 84.40625 105.785156 84.40625 Z M 105.785156 84.40625 " fill-opacity="1" fill-rule="nonzero"/><path fill="#f9f9f9" d="M 105.785156 114.039062 C 65.097656 114.039062 32.113281 147.019531 32.113281 187.710938 C 32.113281 228.398438 65.097656 261.382812 105.785156 261.382812 C 146.472656 261.382812 179.457031 228.398438 179.457031 187.710938 C 179.457031 147.019531 146.472656 114.039062 105.785156 114.039062 Z M 105.785156 114.039062 " fill-opacity="1" fill-rule="nonzero"/></svg>